<mxfile host="app.diagrams.net" agent="Mozilla/5.0 (Windows NT 10.0; Win64; x64) AppleWebKit/537.36 (KHTML, like Gecko) Chrome/128.0.0.0 Safari/537.36" version="24.7.16">
  <diagram name="第 1 页" id="oQWBRpExy0dYVuaQFnPu">
    <mxGraphModel dx="1434" dy="841" grid="1" gridSize="10" guides="1" tooltips="1" connect="1" arrows="1" fold="1" page="1" pageScale="1" pageWidth="5000" pageHeight="20000" math="0" shadow="0">
      <root>
        <mxCell id="0" />
        <mxCell id="1" parent="0" />
        <mxCell id="qF1O0gJKwTEx5X9vgZdj-10" style="edgeStyle=orthogonalEdgeStyle;rounded=0;orthogonalLoop=1;jettySize=auto;html=1;entryX=0;entryY=0.5;entryDx=0;entryDy=0;" edge="1" parent="1" source="qF1O0gJKwTEx5X9vgZdj-6" target="qF1O0gJKwTEx5X9vgZdj-8">
          <mxGeometry relative="1" as="geometry" />
        </mxCell>
        <mxCell id="qF1O0gJKwTEx5X9vgZdj-6" value="供应商用户ID传入&lt;div&gt;请求头&lt;b&gt;srm-user-id&lt;/b&gt;&lt;/div&gt;" style="rounded=0;whiteSpace=wrap;html=1;" vertex="1" parent="1">
          <mxGeometry x="390" y="870" width="120" height="130" as="geometry" />
        </mxCell>
        <mxCell id="qF1O0gJKwTEx5X9vgZdj-7" value="&lt;font style=&quot;font-size: 15px;&quot;&gt;outer&lt;/font&gt;" style="text;html=1;align=center;verticalAlign=middle;resizable=0;points=[];autosize=1;strokeColor=none;fillColor=none;" vertex="1" parent="1">
          <mxGeometry x="420" y="840" width="60" height="30" as="geometry" />
        </mxCell>
        <mxCell id="qF1O0gJKwTEx5X9vgZdj-13" style="edgeStyle=orthogonalEdgeStyle;rounded=0;orthogonalLoop=1;jettySize=auto;html=1;entryX=0;entryY=0.5;entryDx=0;entryDy=0;" edge="1" parent="1" source="qF1O0gJKwTEx5X9vgZdj-8" target="qF1O0gJKwTEx5X9vgZdj-11">
          <mxGeometry relative="1" as="geometry" />
        </mxCell>
        <mxCell id="qF1O0gJKwTEx5X9vgZdj-8" value="获取请求头中&lt;div&gt;&lt;b&gt;srm-user-id&lt;/b&gt;&lt;/div&gt;&lt;div&gt;查询到用户信息放到&lt;/div&gt;&lt;div&gt;&lt;b&gt;ThreadLocalCache.USER_INFO中&lt;/b&gt;&lt;br&gt;&lt;/div&gt;&lt;div&gt;&lt;b&gt;传到base的请求头&lt;/b&gt;&lt;/div&gt;&lt;div&gt;&lt;span style=&quot;background-color: initial;&quot;&gt;&lt;b&gt;srm-base-user-id&lt;/b&gt;&lt;/span&gt;&lt;/div&gt;&lt;div&gt;&lt;span style=&quot;background-color: initial;&quot;&gt;&lt;b&gt;取的ThreadLocal中的userId&lt;/b&gt;&lt;/span&gt;&lt;/div&gt;" style="rounded=0;whiteSpace=wrap;html=1;" vertex="1" parent="1">
          <mxGeometry x="670" y="870" width="120" height="130" as="geometry" />
        </mxCell>
        <mxCell id="qF1O0gJKwTEx5X9vgZdj-9" value="&lt;font style=&quot;font-size: 15px;&quot;&gt;gr2p&lt;/font&gt;" style="text;html=1;align=center;verticalAlign=middle;resizable=0;points=[];autosize=1;strokeColor=none;fillColor=none;" vertex="1" parent="1">
          <mxGeometry x="705" y="840" width="50" height="30" as="geometry" />
        </mxCell>
        <mxCell id="qF1O0gJKwTEx5X9vgZdj-11" value="调用倚天请求头&lt;div&gt;&lt;b&gt;username&lt;/b&gt;&lt;/div&gt;&lt;div&gt;从ThreadLocal中取到用户信息的ldap&lt;/div&gt;" style="rounded=0;whiteSpace=wrap;html=1;" vertex="1" parent="1">
          <mxGeometry x="950" y="870" width="120" height="130" as="geometry" />
        </mxCell>
        <mxCell id="qF1O0gJKwTEx5X9vgZdj-12" value="&lt;font style=&quot;font-size: 15px;&quot;&gt;base&lt;/font&gt;" style="text;html=1;align=center;verticalAlign=middle;resizable=0;points=[];autosize=1;strokeColor=none;fillColor=none;" vertex="1" parent="1">
          <mxGeometry x="980" y="840" width="60" height="30" as="geometry" />
        </mxCell>
        <mxCell id="qF1O0gJKwTEx5X9vgZdj-14" value="登录人信息传递" style="text;html=1;align=center;verticalAlign=middle;resizable=0;points=[];autosize=1;strokeColor=none;fillColor=none;" vertex="1" parent="1">
          <mxGeometry x="525" y="908" width="110" height="30" as="geometry" />
        </mxCell>
        <mxCell id="qF1O0gJKwTEx5X9vgZdj-15" value="登录人信息传递" style="text;html=1;align=center;verticalAlign=middle;resizable=0;points=[];autosize=1;strokeColor=none;fillColor=none;" vertex="1" parent="1">
          <mxGeometry x="820" y="908" width="110" height="30" as="geometry" />
        </mxCell>
        <mxCell id="qF1O0gJKwTEx5X9vgZdj-18" value="" style="edgeStyle=orthogonalEdgeStyle;rounded=0;orthogonalLoop=1;jettySize=auto;html=1;entryX=0;entryY=0.5;entryDx=0;entryDy=0;entryPerimeter=0;" edge="1" parent="1" source="qF1O0gJKwTEx5X9vgZdj-16" target="qF1O0gJKwTEx5X9vgZdj-21">
          <mxGeometry relative="1" as="geometry">
            <mxPoint x="430" y="1450" as="targetPoint" />
          </mxGeometry>
        </mxCell>
        <mxCell id="qF1O0gJKwTEx5X9vgZdj-16" value="前端（协同）" style="rounded=0;whiteSpace=wrap;html=1;" vertex="1" parent="1">
          <mxGeometry x="190" y="1420" width="120" height="70" as="geometry" />
        </mxCell>
        <mxCell id="qF1O0gJKwTEx5X9vgZdj-19" value="调用提交接口" style="text;html=1;align=center;verticalAlign=middle;resizable=0;points=[];autosize=1;strokeColor=none;fillColor=none;" vertex="1" parent="1">
          <mxGeometry x="330" y="1420" width="100" height="30" as="geometry" />
        </mxCell>
        <mxCell id="qF1O0gJKwTEx5X9vgZdj-24" value="" style="edgeStyle=orthogonalEdgeStyle;rounded=0;orthogonalLoop=1;jettySize=auto;html=1;" edge="1" parent="1" source="qF1O0gJKwTEx5X9vgZdj-21" target="qF1O0gJKwTEx5X9vgZdj-23">
          <mxGeometry relative="1" as="geometry" />
        </mxCell>
        <mxCell id="qF1O0gJKwTEx5X9vgZdj-21" value="根据userNoi查询用户表" style="shape=cylinder3;whiteSpace=wrap;html=1;boundedLbl=1;backgroundOutline=1;size=15;fillColor=#dae8fc;strokeColor=#6c8ebf;" vertex="1" parent="1">
          <mxGeometry x="450" y="1410" width="90" height="90" as="geometry" />
        </mxCell>
        <mxCell id="qF1O0gJKwTEx5X9vgZdj-26" value="" style="edgeStyle=orthogonalEdgeStyle;rounded=0;orthogonalLoop=1;jettySize=auto;html=1;" edge="1" parent="1" source="qF1O0gJKwTEx5X9vgZdj-23" target="qF1O0gJKwTEx5X9vgZdj-25">
          <mxGeometry relative="1" as="geometry" />
        </mxCell>
        <mxCell id="qF1O0gJKwTEx5X9vgZdj-23" value="将用户信息放入ThreadLocal中" style="whiteSpace=wrap;html=1;fillColor=#dae8fc;strokeColor=#6c8ebf;" vertex="1" parent="1">
          <mxGeometry x="640" y="1425" width="120" height="60" as="geometry" />
        </mxCell>
        <mxCell id="qF1O0gJKwTEx5X9vgZdj-45" style="rounded=0;orthogonalLoop=1;jettySize=auto;html=1;entryX=0.5;entryY=0;entryDx=0;entryDy=0;exitX=0.5;exitY=1;exitDx=0;exitDy=0;" edge="1" parent="1" source="qF1O0gJKwTEx5X9vgZdj-25" target="qF1O0gJKwTEx5X9vgZdj-28">
          <mxGeometry relative="1" as="geometry">
            <mxPoint x="870" y="1550" as="targetPoint" />
          </mxGeometry>
        </mxCell>
        <mxCell id="qF1O0gJKwTEx5X9vgZdj-25" value="组装请求头&lt;div&gt;&lt;b&gt;srm-user-id&lt;/b&gt;&lt;/div&gt;&lt;div&gt;取值为ThreadLocal中的uerId&lt;/div&gt;" style="whiteSpace=wrap;html=1;fillColor=#dae8fc;strokeColor=#6c8ebf;rounded=0;" vertex="1" parent="1">
          <mxGeometry x="860" y="1425" width="120" height="60" as="geometry" />
        </mxCell>
        <mxCell id="qF1O0gJKwTEx5X9vgZdj-28" value="获取到请求头&lt;div&gt;&lt;b&gt;srm-user-id&lt;/b&gt;&lt;br&gt;&lt;/div&gt;" style="whiteSpace=wrap;html=1;fillColor=#d5e8d4;strokeColor=#82b366;" vertex="1" parent="1">
          <mxGeometry x="200" y="1665" width="120" height="60" as="geometry" />
        </mxCell>
        <mxCell id="qF1O0gJKwTEx5X9vgZdj-31" value="outer调用gr2p" style="text;html=1;align=center;verticalAlign=middle;resizable=0;points=[];autosize=1;strokeColor=none;fillColor=none;" vertex="1" parent="1">
          <mxGeometry x="560" y="1540" width="100" height="30" as="geometry" />
        </mxCell>
        <mxCell id="qF1O0gJKwTEx5X9vgZdj-38" value="" style="edgeStyle=orthogonalEdgeStyle;rounded=0;orthogonalLoop=1;jettySize=auto;html=1;" edge="1" parent="1" source="qF1O0gJKwTEx5X9vgZdj-35" target="qF1O0gJKwTEx5X9vgZdj-37">
          <mxGeometry relative="1" as="geometry" />
        </mxCell>
        <mxCell id="qF1O0gJKwTEx5X9vgZdj-35" value="查询用户信息" style="shape=cylinder3;whiteSpace=wrap;html=1;boundedLbl=1;backgroundOutline=1;size=15;fillColor=#d5e8d4;strokeColor=#82b366;" vertex="1" parent="1">
          <mxGeometry x="455" y="1650" width="90" height="90" as="geometry" />
        </mxCell>
        <mxCell id="qF1O0gJKwTEx5X9vgZdj-36" style="edgeStyle=orthogonalEdgeStyle;rounded=0;orthogonalLoop=1;jettySize=auto;html=1;entryX=0;entryY=0.5;entryDx=0;entryDy=0;entryPerimeter=0;" edge="1" parent="1" source="qF1O0gJKwTEx5X9vgZdj-28" target="qF1O0gJKwTEx5X9vgZdj-35">
          <mxGeometry relative="1" as="geometry" />
        </mxCell>
        <mxCell id="qF1O0gJKwTEx5X9vgZdj-40" value="" style="edgeStyle=orthogonalEdgeStyle;rounded=0;orthogonalLoop=1;jettySize=auto;html=1;" edge="1" parent="1" source="qF1O0gJKwTEx5X9vgZdj-37" target="qF1O0gJKwTEx5X9vgZdj-39">
          <mxGeometry relative="1" as="geometry" />
        </mxCell>
        <mxCell id="qF1O0gJKwTEx5X9vgZdj-37" value="将用户信息放入ThreadLocal中" style="whiteSpace=wrap;html=1;fillColor=#d5e8d4;strokeColor=#82b366;" vertex="1" parent="1">
          <mxGeometry x="640" y="1665" width="120" height="60" as="geometry" />
        </mxCell>
        <mxCell id="qF1O0gJKwTEx5X9vgZdj-54" style="rounded=0;orthogonalLoop=1;jettySize=auto;html=1;exitX=0.5;exitY=1;exitDx=0;exitDy=0;entryX=0.5;entryY=0;entryDx=0;entryDy=0;" edge="1" parent="1" source="qF1O0gJKwTEx5X9vgZdj-39" target="qF1O0gJKwTEx5X9vgZdj-46">
          <mxGeometry relative="1" as="geometry">
            <mxPoint x="270" y="1910" as="targetPoint" />
          </mxGeometry>
        </mxCell>
        <mxCell id="qF1O0gJKwTEx5X9vgZdj-39" value="组装请求头&lt;div&gt;&lt;b&gt;srm-base-user-id&lt;/b&gt;&lt;br&gt;&lt;/div&gt;&lt;div&gt;取值为ThreadLocal中的uerId&lt;/div&gt;" style="whiteSpace=wrap;html=1;fillColor=#d5e8d4;strokeColor=#82b366;" vertex="1" parent="1">
          <mxGeometry x="860" y="1665" width="120" height="60" as="geometry" />
        </mxCell>
        <mxCell id="qF1O0gJKwTEx5X9vgZdj-46" value="获取到请求头&lt;div&gt;&lt;b&gt;srm-base-user-id&lt;/b&gt;&lt;br&gt;&lt;/div&gt;" style="whiteSpace=wrap;html=1;fillColor=#ffe6cc;strokeColor=#d79b00;" vertex="1" parent="1">
          <mxGeometry x="200" y="1915" width="120" height="60" as="geometry" />
        </mxCell>
        <mxCell id="qF1O0gJKwTEx5X9vgZdj-47" value="" style="edgeStyle=orthogonalEdgeStyle;rounded=0;orthogonalLoop=1;jettySize=auto;html=1;" edge="1" source="qF1O0gJKwTEx5X9vgZdj-48" target="qF1O0gJKwTEx5X9vgZdj-51" parent="1">
          <mxGeometry relative="1" as="geometry" />
        </mxCell>
        <mxCell id="qF1O0gJKwTEx5X9vgZdj-48" value="查询用户信息" style="shape=cylinder3;whiteSpace=wrap;html=1;boundedLbl=1;backgroundOutline=1;size=15;fillColor=#ffe6cc;strokeColor=#d79b00;" vertex="1" parent="1">
          <mxGeometry x="455" y="1900" width="90" height="90" as="geometry" />
        </mxCell>
        <mxCell id="qF1O0gJKwTEx5X9vgZdj-49" style="edgeStyle=orthogonalEdgeStyle;rounded=0;orthogonalLoop=1;jettySize=auto;html=1;entryX=0;entryY=0.5;entryDx=0;entryDy=0;entryPerimeter=0;" edge="1" source="qF1O0gJKwTEx5X9vgZdj-46" target="qF1O0gJKwTEx5X9vgZdj-48" parent="1">
          <mxGeometry relative="1" as="geometry" />
        </mxCell>
        <mxCell id="qF1O0gJKwTEx5X9vgZdj-50" value="" style="edgeStyle=orthogonalEdgeStyle;rounded=0;orthogonalLoop=1;jettySize=auto;html=1;" edge="1" source="qF1O0gJKwTEx5X9vgZdj-51" target="qF1O0gJKwTEx5X9vgZdj-52" parent="1">
          <mxGeometry relative="1" as="geometry" />
        </mxCell>
        <mxCell id="qF1O0gJKwTEx5X9vgZdj-51" value="将用户信息放入ThreadLocal中" style="whiteSpace=wrap;html=1;fillColor=#ffe6cc;strokeColor=#d79b00;" vertex="1" parent="1">
          <mxGeometry x="640" y="1915" width="120" height="60" as="geometry" />
        </mxCell>
        <mxCell id="qF1O0gJKwTEx5X9vgZdj-57" value="" style="edgeStyle=orthogonalEdgeStyle;rounded=0;orthogonalLoop=1;jettySize=auto;html=1;" edge="1" parent="1" source="qF1O0gJKwTEx5X9vgZdj-52" target="qF1O0gJKwTEx5X9vgZdj-56">
          <mxGeometry relative="1" as="geometry" />
        </mxCell>
        <mxCell id="qF1O0gJKwTEx5X9vgZdj-52" value="组装请求头&lt;div&gt;&lt;b&gt;username&lt;/b&gt;&lt;br&gt;&lt;/div&gt;&lt;div&gt;取值为ThreadLocal中用户信息的&lt;b&gt;ldap&lt;/b&gt;&lt;/div&gt;" style="whiteSpace=wrap;html=1;fillColor=#ffe6cc;strokeColor=#d79b00;" vertex="1" parent="1">
          <mxGeometry x="860" y="1915" width="120" height="60" as="geometry" />
        </mxCell>
        <mxCell id="qF1O0gJKwTEx5X9vgZdj-55" value="gr2p调用base" style="text;html=1;align=center;verticalAlign=middle;resizable=0;points=[];autosize=1;strokeColor=none;fillColor=none;" vertex="1" parent="1">
          <mxGeometry x="530" y="1788" width="100" height="30" as="geometry" />
        </mxCell>
        <mxCell id="qF1O0gJKwTEx5X9vgZdj-56" value="调用倚天" style="whiteSpace=wrap;html=1;fillColor=#ffe6cc;strokeColor=#d79b00;" vertex="1" parent="1">
          <mxGeometry x="1060" y="1915" width="120" height="60" as="geometry" />
        </mxCell>
      </root>
    </mxGraphModel>
  </diagram>
</mxfile>
